<?xml version="1.0" standalone="no"?>
<!DOCTYPE svg PUBLIC "-//W3C//DTD SVG 1.1//EN" "http://www.w3.org/Graphics/SVG/1.1/DTD/svg11.dtd" >
<svg xmlns="http://www.w3.org/2000/svg">
<metadata></metadata>
<defs>
<font id="thesanslfsemibold" horiz-adv-x="1126" >
<font-face units-per-em="2048" ascent="1516" descent="-532" />
<missing-glyph horiz-adv-x="446" />
<glyph unicode="&#x2e;&#x2e;&#x2e;" horiz-adv-x="1415" d="M102 119q0 58 41.5 99.5t98.5 41.5q58 0 99.5 -41t41.5 -100q0 -57 -41.5 -98t-99.5 -41q-57 0 -98.5 41t-41.5 98zM559 119q0 58 41 99.5t98 41.5q59 0 100.5 -41.5t41.5 -99.5q0 -57 -42 -98t-100 -41q-57 0 -98 41t-41 98zM1016 119q0 59 41 100t100 41q57 0 98 -41.5 t41 -99.5q0 -57 -41 -98t-98 -41q-58 0 -99.5 41t-41.5 98z" />
<glyph unicode="&#xfb03;" horiz-adv-x="1828" d="M16 848v170h195v49q0 93 25 168t78.5 133.5t144.5 90.5t215 32q179 0 319 -59q119 79 328 79q153 0 305 -38l-41 -183q-134 41 -254 41q-282 0 -282 -254v-59h624v-1018h-219v848h-405v-848h-220v848h-401v-848h-217v848h-195zM428 1018h401v41q0 132 45 213 q-92 41 -212 41q-121 0 -177.5 -57.5t-56.5 -172.5v-65z" />
<glyph unicode="&#xfb04;" horiz-adv-x="1828" d="M16 848v170h195v49q0 93 25 168t78.5 133.5t144.5 90.5t215 32q170 0 313 -57q115 77 326 77q138 0 360 -32v-1479h-219v1319q-77 14 -162 14q-124 0 -183.5 -53t-59.5 -168v-94h251v-170h-251v-848h-220v848h-401v-848h-217v848h-195zM428 1018h401v108q0 90 33 152 q-87 35 -200 35q-121 0 -177.5 -57.5t-56.5 -172.5v-65z" />
<glyph horiz-adv-x="0" />
<glyph horiz-adv-x="0" />
<glyph horiz-adv-x="682" />
<glyph unicode="&#xd;" horiz-adv-x="1024" />
<glyph unicode=" "  horiz-adv-x="446" />
<glyph unicode="&#x09;" horiz-adv-x="446" />
<glyph unicode="&#xa0;" horiz-adv-x="446" />
<glyph unicode="!" horiz-adv-x="655" d="M205 117q0 57 40.5 96t100.5 39q59 0 99 -39t40 -96q0 -58 -40 -97.5t-99 -39.5q-60 0 -100.5 39.5t-40.5 97.5zM217 1444h258l-35 -1082h-186z" />
<glyph unicode="&#x22;" horiz-adv-x="784" d="M98 1436h226l-31 -494h-162zM461 1436h225l-33 -494h-161z" />
<glyph unicode="#" horiz-adv-x="1185" d="M61 379v151h193l37 332h-178v152h192l39 368h176l-41 -368h295l39 368h176l-39 -368h174v-152h-190l-35 -332h176v-151h-192l-39 -379h-176l41 379h-295l-39 -379h-176l39 379h-177zM430 530h293l37 332h-295z" />
<glyph unicode="$" horiz-adv-x="1005" d="M109 918q0 134 88.5 230t236.5 122v211h160v-201q109 -3 213 -25l-16 -190q-119 35 -230 35q-119 0 -174 -45t-55 -115q0 -49 31.5 -85.5t82 -61.5t111.5 -48.5t121.5 -53.5t111 -69t82 -103t31.5 -148q0 -141 -91 -244.5t-251 -136.5v-258h-160v248q-126 3 -249 28 l12 201q121 -45 264 -45q112 0 179 45t67 137q0 45 -24.5 80.5t-64 57t-90.5 44.5t-103.5 42t-103.5 49.5t-90.5 67.5t-64 96.5t-24.5 134.5z" />
<glyph unicode="%" horiz-adv-x="1546" d="M86 1075q0 145 86.5 237.5t224.5 92.5q143 0 219 -79t76 -232q0 -149 -87.5 -242.5t-225.5 -93.5q-145 0 -219 83t-74 234zM188 55l1022 1368l140 -100l-1020 -1366zM258 1085q0 -96 33.5 -141t101.5 -45q57 0 93 49.5t36 132.5q0 95 -32.5 139t-100.5 44 q-58 0 -94.5 -49t-36.5 -130zM852 295q0 145 87.5 237.5t225.5 92.5q142 0 218.5 -79.5t76.5 -232.5q0 -147 -88 -240t-225 -93q-147 0 -221 82t-74 233zM1024 305q0 -96 33.5 -140t101.5 -44q57 0 93 49t36 131q0 96 -32 139t-101 43q-58 0 -94.5 -48t-36.5 -130z" />
<glyph unicode="&#x26;" horiz-adv-x="1630" d="M106 381q0 128 69.5 229.5t205.5 206.5q-102 121 -143 202.5t-41 166.5q0 137 102.5 230t280.5 93q164 0 254 -78.5t90 -209.5q0 -105 -59.5 -200.5t-190.5 -199.5q220 -220 418 -375v-2q66 96 101.5 221.5t29.5 260.5h217q4 -166 -44.5 -321t-142.5 -279 q146 -116 275 -201l-144 -168q-169 118 -284 211q-229 -188 -537 -188q-112 0 -200.5 31.5t-143.5 86.5t-84 127t-29 156zM332 410q0 -102 73.5 -173t194.5 -71q194 0 342 123q-113 90 -232.5 201t-201.5 198q-93 -76 -134.5 -142t-41.5 -136zM414 1198q0 -97 135 -252 q82 69 121 128t39 128q0 62 -37 101.5t-109 39.5q-66 0 -107.5 -40.5t-41.5 -104.5z" />
<glyph unicode="'" horiz-adv-x="421" d="M98 1436h226l-31 -494h-162z" />
<glyph unicode="(" horiz-adv-x="622" d="M127 582q0 548 303 1024l158 -76q-246 -429 -246 -938q0 -523 252 -948l-166 -76q-166 261 -233.5 509.5t-67.5 504.5z" />
<glyph unicode=")" horiz-adv-x="622" d="M41 1528l164 78q166 -262 232.5 -509.5t66.5 -506.5q0 -546 -303 -1022l-158 74q248 430 248 938q0 519 -250 948z" />
<glyph unicode="*" horiz-adv-x="774" d="M72 1092l209 88l-209 88l80 137l180 -135l-29 225h160l-27 -225l180 135l78 -135l-209 -88l209 -88l-80 -140l-180 138l29 -226h-160l27 226l-180 -138z" />
<glyph unicode="+" d="M84 518v182h375v398h207v-398h376v-182h-376v-399h-207v399h-375z" />
<glyph unicode="," horiz-adv-x="493" d="M53 -252q178 191 88 303q-25 30 -29 68t10 69.5t46.5 53.5t75.5 22q79 0 119 -71q50 -90 3 -224q-54 -154 -221 -303z" />
<glyph unicode="-" horiz-adv-x="679" d="M94 492v176h492v-176h-492z" />
<glyph unicode="." horiz-adv-x="493" d="M102 125q0 60 43 102.5t103 42.5t102.5 -42.5t42.5 -102.5t-42.5 -102.5t-102.5 -42.5t-103 42.5t-43 102.5z" />
<glyph unicode="/" horiz-adv-x="919" d="M-8 -330l719 1880h213l-717 -1880h-215z" />
<glyph unicode="0" horiz-adv-x="1202" d="M88 676q0 180 42 320.5t115 227t167 131t204 44.5q498 0 498 -694q0 -179 -42 -319.5t-115 -227.5t-167 -131.5t-204 -44.5q-498 0 -498 694zM322 694q0 -272 68 -400t208 -128q63 0 113 28.5t89 89t60 163t21 241.5q0 272 -69.5 400.5t-207.5 128.5q-130 0 -206 -125.5 t-76 -397.5z" />
<glyph unicode="1" horiz-adv-x="727" d="M47 1264l334 118h176v-1382h-225v1157l-250 -98z" />
<glyph unicode="2" horiz-adv-x="1024" d="M115 0v182l235 271q169 187 232 307.5t63 224.5q0 97 -57 158t-166 61q-64 0 -134 -22.5t-128 -59.5l-35 199q164 82 356 82q194 0 300 -107t106 -274q0 -140 -76.5 -287.5t-255.5 -349.5l-158 -180l2 -2q175 8 533 8v-211h-817z" />
<glyph unicode="3" horiz-adv-x="987" d="M104 6l25 195q77 -29 209 -29q141 0 223 67t82 171q0 100 -84.5 159.5t-245.5 59.5q-83 0 -135 -8v176q217 -6 317.5 57t100.5 178q0 86 -55 135.5t-158 49.5q-116 0 -233 -60l-19 184q144 62 305 62q190 0 290.5 -91.5t100.5 -236.5q0 -114 -61.5 -199t-165.5 -122 l-2 -6q128 -28 204.5 -116t76.5 -210q0 -193 -154.5 -316.5t-392.5 -123.5q-134 0 -228 24z" />
<glyph unicode="4" horiz-adv-x="1124" d="M35 487l534 895h295v-868h219v-201h-219v-313h-217v313h-596zM246 506q106 6 405 6v668h-2z" />
<glyph unicode="5" horiz-adv-x="946" d="M102 4l25 197q80 -25 195 -25q151 0 236 71t85 191q0 236 -371 236q-66 0 -122 -6v714h655v-208l-451 2v-326q256 1 389.5 -100.5t133.5 -288.5q0 -214 -160 -345.5t-410 -131.5q-117 0 -205 20z" />
<glyph unicode="6" horiz-adv-x="1181" d="M123 578q0 206 54.5 365t151 257.5t222.5 148.5t276 50q93 0 140 -6v-197q-69 14 -148 14q-365 0 -448 -385q-8 -40 -17 -77l2 -3q51 60 133 97t185 37q193 0 306.5 -113t113.5 -299q0 -215 -139 -351t-361 -136q-106 0 -189 35.5t-135 93t-86 137t-47.5 161t-13.5 171.5 zM365 453q0 -132 65 -209.5t182 -77.5q111 0 181.5 74t70.5 194q0 121 -64 191.5t-182 70.5q-113 0 -183 -71t-70 -172z" />
<glyph unicode="7" horiz-adv-x="933" d="M47 1167v215h834v-188q-118 -258 -224.5 -584t-167.5 -610h-245q70 299 182.5 632t208.5 542q-123 -7 -588 -7z" />
<glyph unicode="8" horiz-adv-x="1134" d="M100 332q0 60 21 114.5t61.5 100t84 80.5t102.5 73q-244 136 -244 334q0 169 128 273t333 104q187 0 300 -94.5t113 -239.5q0 -58 -19 -108.5t-57 -94t-78 -76.5t-97 -71q134 -73 207 -159t73 -203q0 -122 -66.5 -211.5t-174.5 -133t-242 -43.5q-210 0 -327.5 97.5 t-117.5 257.5zM332 352q0 -88 62.5 -140t172.5 -52q100 0 166 49.5t66 134.5q0 36 -14.5 69t-35.5 58t-58 51.5t-67.5 44.5t-78.5 43q-51 -32 -83 -55.5t-65 -56t-49 -69t-16 -77.5zM348 1057q0 -70 54 -124.5t167 -115.5q108 66 156.5 121.5t48.5 118.5q0 76 -54 126 t-155 50t-159 -48.5t-58 -127.5z" />
<glyph unicode="9" horiz-adv-x="1191" d="M100 915q0 209 138 348.5t354 139.5q108 0 192.5 -35.5t137 -93t86.5 -137t47.5 -160t13.5 -170.5q0 -403 -186.5 -614t-524.5 -211q-98 0 -174 12v201q87 -25 195 -25q343 0 422 356q12 36 22 101l-2 2q-42 -59 -122.5 -97t-184.5 -38q-190 0 -302 114.5t-112 306.5z M328 946q0 -120 63 -191t180 -71q111 0 181.5 74t70.5 170q0 135 -66 212t-182 77q-108 0 -177.5 -74.5t-69.5 -196.5z" />
<glyph unicode=":" horiz-adv-x="598" d="M180 125q0 60 43 102.5t103 42.5t102.5 -42.5t42.5 -102.5t-42.5 -102.5t-102.5 -42.5t-103 42.5t-43 102.5zM180 715q0 60 43 102.5t103 42.5t102.5 -42.5t42.5 -102.5t-42.5 -103t-102.5 -43t-103 43t-43 103z" />
<glyph unicode=";" horiz-adv-x="598" d="M135 -252q179 192 86 303q-24 30 -27.5 68t10.5 69.5t46.5 53.5t75.5 22q78 0 118 -70q51 -90 4 -224q-54 -155 -221 -304zM180 715q0 60 43 102.5t103 42.5t102.5 -42.5t42.5 -102.5t-42.5 -103t-102.5 -43t-103 43t-43 103z" />
<glyph unicode="&#x3c;" d="M139 618l649 590l142 -143l-510 -444l512 -445l-141 -149z" />
<glyph unicode="=" d="M113 336v178h901v-178h-901zM113 702v179h901v-179h-901z" />
<glyph unicode="&#x3e;" d="M195 1059l141 149l651 -590l-649 -591l-141 143l510 446z" />
<glyph unicode="?" horiz-adv-x="917" d="M156 1262l28 198q295 -9 459 -125.5t164 -279.5q0 -54 -14 -101.5t-37 -83t-52.5 -68t-60 -61t-59.5 -57.5t-52 -61.5t-37 -69.5t-14 -85.5t17 -105.5h-213q-21 64 -25 120t7.5 98.5t32 80.5t48.5 68.5t57.5 59t58 56t51 55t36.5 61t14 69.5q0 98 -110 161.5t-299 70.5z M254 117q0 57 40 96t99 39q60 0 99.5 -39t39.5 -96q0 -59 -39.5 -98t-99.5 -39q-59 0 -99 39.5t-40 97.5z" />
<glyph unicode="@" horiz-adv-x="1996" d="M170 575q0 199 71.5 373t193 295.5t287.5 191.5t351 70q144 0 264.5 -35t206.5 -96.5t145.5 -145.5t88 -182.5t28.5 -207.5q0 -272 -133 -423t-344 -151q-114 0 -168.5 61t-46.5 152h-6q-33 -76 -117.5 -144.5t-181.5 -68.5q-99 0 -151 73t-52 212q0 115 29.5 213t86 174 t147 119t206.5 43q129 0 252 -35l-76 -424q-20 -104 7.5 -151.5t99.5 -47.5q111 0 181.5 99t70.5 288q0 99 -30.5 185.5t-93.5 159t-172.5 115t-254.5 42.5q-142 0 -268 -53.5t-219 -148t-147 -231.5t-54 -296q0 -280 155 -436t455 -156q169 0 350 55l33 -172 q-189 -63 -410 -63q-374 0 -579 200t-205 547zM782 586q0 -146 78 -146q73 0 144.5 102.5t109.5 293.5l19 98q-41 14 -107 14q-59 0 -107.5 -35.5t-77 -91t-44 -116.5t-15.5 -119z" />
<glyph unicode="A" horiz-adv-x="1269" d="M12 0l492 1382h256l497 -1382h-247l-105 305h-561l-106 -305h-226zM399 483h449l-166 469q-39 114 -57 189h-4q-22 -89 -56 -187z" />
<glyph unicode="B" horiz-adv-x="1175" d="M160 0v1382q382 7 430 7q219 0 334.5 -87.5t115.5 -248.5q0 -107 -59.5 -192t-165.5 -124v-4q120 -20 193 -106t73 -209q0 -62 -17 -120.5t-58 -114.5t-102 -97.5t-156 -66.5t-213 -25q-52 0 -182.5 2.5t-192.5 3.5zM383 184q87 -10 164 -10q146 0 221.5 65t75.5 171 q0 219 -338 219q-92 0 -123 -2v-443zM383 797q37 -2 119 -2q152 0 227.5 58t75.5 165q0 194 -254 194q-70 0 -168 -4v-411z" />
<glyph unicode="C" horiz-adv-x="1179" d="M88 653q0 164 42 298t124 234t213.5 155t302.5 55q168 0 307 -43l-33 -205q-142 51 -292 51q-85 0 -154.5 -25.5t-118.5 -71t-82.5 -109t-49 -139.5t-15.5 -163q0 -246 108 -376t330 -130q71 0 149 18t136 48l37 -197q-167 -69 -371 -69q-136 0 -243.5 34t-179.5 94 t-120 145.5t-69 183.5t-21 212z" />
<glyph unicode="D" horiz-adv-x="1378" d="M160 0v1380q7 0 169.5 4.5t258.5 4.5q166 0 294 -39t221 -120t141 -211.5t48 -307.5q0 -175 -56 -312.5t-158 -226t-242 -134.5t-310 -46q-83 0 -214.5 4t-151.5 4zM383 193q83 -11 166 -11q233 0 369.5 128t136.5 384q0 251 -117.5 380.5t-366.5 129.5q-90 0 -188 -4 v-1007z" />
<glyph unicode="E" horiz-adv-x="1019" d="M160 0v1382h729v-186h-506v-393h481v-182h-481v-431h506v-190h-729z" />
<glyph unicode="F" horiz-adv-x="956" d="M160 0v1382h721v-188h-498v-406h471v-182h-471v-606h-223z" />
<glyph unicode="G" horiz-adv-x="1390" d="M82 653q0 166 49 302.5t142.5 236t237 154.5t325.5 55q196 0 387 -58l-47 -204q-170 67 -357 67q-128 0 -226 -42t-156 -115t-86.5 -165t-28.5 -200q0 -240 125.5 -373t353.5 -133q109 0 213 33v502h223v-650q-215 -83 -463 -83q-330 0 -511 178.5t-181 494.5z" />
<glyph unicode="H" horiz-adv-x="1419" d="M160 0v1382h223v-571h653v571h221v-1382h-221v621h-653v-621h-223z" />
<glyph unicode="I" horiz-adv-x="544" d="M160 0v1382h223v-1382h-223z" />
<glyph unicode="J" horiz-adv-x="679" d="M2 0v193q74 -21 133 -21q84 0 124 45.5t40 165.5v999h221v-1009q0 -389 -358 -389q-74 0 -160 16z" />
<glyph unicode="K" horiz-adv-x="1208" d="M160 0v1382h223v-641l504 641h274l-549 -667l570 -715h-297l-502 676v-676h-223z" />
<glyph unicode="L" horiz-adv-x="874" d="M160 0v1382h223v-1187h475v-195h-698z" />
<glyph unicode="M" horiz-adv-x="1814" d="M84 0l207 1382h266l266 -802q33 -95 78 -283h2q55 207 78 274l270 811h269l211 -1382h-232l-110 741q-27 211 -43 349h-5q-33 -156 -73 -285l-264 -805h-226l-250 752q-61 189 -90 338h-2q-14 -166 -39 -369l-88 -721h-225z" />
<glyph unicode="N" horiz-adv-x="1441" d="M160 0v1382h295l481 -813q85 -151 143 -280q-14 276 -14 743v350h215v-1382h-295l-489 831q-83 148 -136 271q15 -253 15 -721v-381h-215z" />
<glyph unicode="O" horiz-adv-x="1441" d="M78 672q0 169 52 308.5t142.5 231t211 141.5t257.5 50q307 0 465 -184t158 -508q0 -169 -52.5 -308.5t-143 -231t-211 -141.5t-257.5 -50q-307 0 -464.5 184t-157.5 508zM315 702q0 -243 102.5 -383.5t301.5 -140.5q177 0 292 134t115 368q0 243 -103 384.5t-300 141.5 q-176 0 -292 -135t-116 -369z" />
<glyph unicode="P" horiz-adv-x="1089" d="M160 0v1382q186 9 364 9q244 0 376 -109.5t132 -304.5q0 -212 -142.5 -345.5t-391.5 -133.5l-115 6v-504h-223zM383 694q59 -10 131 -10q140 0 213.5 71t73.5 195q0 256 -295 256l-123 -2v-510z" />
<glyph unicode="Q" horiz-adv-x="1439" d="M78 672q0 169 52 308.5t142.5 231t211 141.5t257.5 50q307 0 465 -184t158 -508q0 -216 -81.5 -375t-231.5 -227q49 0 110.5 -18t130.5 -31q38 -7 81 -7q32 0 67 4v-194q-72 -8 -126 -8q-29 0 -52 2q-67 7 -132 27t-111 41.5t-116 38t-147 16.5h-56q-307 0 -464.5 184 t-157.5 508zM315 702q0 -243 102.5 -383.5t301.5 -140.5q175 0 291 135t116 367q0 243 -103 384.5t-300 141.5q-176 0 -292 -135t-116 -369z" />
<glyph unicode="R" horiz-adv-x="1144" d="M160 0v1382q150 9 370 9q484 0 484 -375q0 -160 -107.5 -263.5t-269.5 -123.5q94 -118 115 -148l352 -481h-279l-417 598h-25v-598h-223zM383 766q40 -4 109 -4q134 0 211 62.5t77 166.5q0 113 -69.5 165t-210.5 52q-51 0 -117 -4v-438z" />
<glyph unicode="S" horiz-adv-x="1030" d="M94 999q0 182 132.5 293t367.5 111q122 0 250 -27l-23 -196q-115 39 -237 39q-126 0 -190 -51.5t-64 -141.5q0 -49 26.5 -87.5t69.5 -63t98 -49.5t112 -46t112 -53.5t98 -71.5t69.5 -101t26.5 -140q0 -191 -143.5 -312.5t-376.5 -121.5q-177 0 -311 38l24 213 q147 -57 295 -57q118 0 194 52t76 159q0 46 -20.5 82.5t-56 61t-81 45.5t-95.5 40.5t-100 40.5t-95.5 51.5t-81 68.5t-56 95.5t-20.5 128.5z" />
<glyph unicode="T" horiz-adv-x="1052" d="M35 1194v188h983v-188h-381v-1194h-223v1194h-379z" />
<glyph unicode="U" horiz-adv-x="1406" d="M160 471v911h223v-895q0 -74 14 -129t48 -100.5t98 -69.5t157 -24q172 0 250 81t78 271v866h219v-850q0 -274 -143.5 -413t-417.5 -139q-126 0 -221 27.5t-152 71.5t-92.5 110t-48 133t-12.5 149z" />
<glyph unicode="V" horiz-adv-x="1273" d="M14 1382h246l291 -852q40 -110 86 -276h2q41 152 92 291l297 837h229l-497 -1382h-254z" />
<glyph unicode="W" horiz-adv-x="1949" d="M61 1382h238l213 -839q36 -145 53 -273h2q24 155 56 262l235 850h244l241 -852q38 -140 56 -254h2q16 101 49 242l215 864h223l-358 -1382h-275l-235 854q-28 101 -53 260h-2q-14 -122 -50 -256l-233 -858h-262z" />
<glyph unicode="X" horiz-adv-x="1253" d="M29 0l448 711l-422 671h258l308 -505l303 505h252l-414 -667l463 -715h-281l-328 543l-325 -543h-262z" />
<glyph unicode="Y" horiz-adv-x="1122" d="M12 1382h244l205 -436q51 -113 98 -233h4q38 100 115 258l194 411h236l-440 -888v-494h-224v494z" />
<glyph unicode="Z" horiz-adv-x="1101" d="M92 0v170l545 866q79 119 102 150q-59 -2 -280 -2h-346v198h891v-176l-574 -895q-30 -51 -74 -110q39 4 326 4h330v-205h-920z" />
<glyph unicode="[" horiz-adv-x="663" d="M162 -412v1997h426v-172h-221v-1651h221v-174h-426z" />
<glyph unicode="\" horiz-adv-x="940" d="M18 1550h213l719 -1880h-215z" />
<glyph unicode="]" horiz-adv-x="663" d="M76 -238h221v1651h-221v172h426v-1997h-426v174z" />
<glyph unicode="^" d="M123 774l338 608h172l352 -604l-160 -82l-284 527l-271 -527z" />
<glyph unicode="_" d="M0 -332h1126v-176h-1126v176z" />
<glyph unicode="`" horiz-adv-x="759" d="M154 1386l110 146l314 -256l-89 -117z" />
<glyph unicode="a" horiz-adv-x="1071" d="M88 262q0 170 158.5 261t441.5 91v43q0 110 -45.5 160.5t-155.5 50.5q-69 0 -153.5 -20t-153.5 -51l-39 170q177 71 377 71q213 0 301 -90t88 -266v-403q0 -150 6 -279h-211q0 112 11 188l-2 2q-38 -93 -128.5 -151.5t-209.5 -58.5q-129 0 -207 78t-78 204zM301 289 q0 -60 38 -98.5t101 -38.5q107 0 177.5 87.5t70.5 200.5v27q-387 0 -387 -178z" />
<glyph unicode="b" horiz-adv-x="1142" d="M160 27v1468h219v-469q0 -111 -19 -195h5q40 96 125.5 151.5t197.5 55.5q181 0 278 -124t97 -355q0 -265 -144.5 -420t-396.5 -155q-197 0 -362 43zM379 178q64 -20 160 -20q138 0 215 92t77 289q0 317 -200 317q-78 0 -137 -55.5t-87 -136.5t-28 -170v-316z" />
<glyph unicode="c" horiz-adv-x="882" d="M78 475q0 165 54.5 289t170 197t281.5 73q139 0 237 -39l-37 -186q-105 43 -213 43q-126 0 -195 -95.5t-69 -256.5q0 -328 266 -328q129 0 220 45l32 -182q-122 -51 -295 -51q-102 0 -182 26.5t-142 83t-95 153t-33 228.5z" />
<glyph unicode="d" horiz-adv-x="1140" d="M78 459q0 264 143 419.5t389 155.5q44 0 154 -8v469h217v-1495h-207q0 110 14 190h-4q-42 -96 -128.5 -153t-202.5 -57q-184 0 -279.5 126.5t-95.5 352.5zM309 479q0 -319 203 -319q77 0 136 56t87.5 138t28.5 172v316q-82 18 -162 18q-138 0 -215.5 -92t-77.5 -289z" />
<glyph unicode="e" horiz-adv-x="1046" d="M78 502q0 235 126.5 385.5t342.5 150.5q106 0 186.5 -33.5t128.5 -92.5t72 -134t24 -164q0 -74 -8 -131h-647v-17q0 -154 70 -230q74 -80 231 -80q154 0 293 59l29 -170q-168 -65 -361 -65q-487 0 -487 522zM305 635h434v12q1 105 -51 164q-54 63 -153 63 q-93 0 -155 -63.5t-75 -175.5z" />
<glyph unicode="f" horiz-adv-x="720" d="M16 848v170h195v78q0 413 397 413q86 0 166 -18l-16 -180q-64 20 -140 20q-98 0 -144 -55.5t-46 -175.5v-82h264v-170h-264v-848h-217v848h-195z" />
<glyph unicode="g" horiz-adv-x="1112" d="M76 -215q0 81 48 152t118 110q-46 21 -73.5 61.5t-27.5 92.5q0 55 32 103t85 73q-152 86 -152 278q0 78 29 146.5t83 121.5t139 84t190 31q65 0 153 -20h347v-172h-156q67 -58 67 -162q0 -166 -111 -267.5t-321 -101.5q-42 0 -96 13q-28 -13 -43.5 -34t-15.5 -42 q0 -39 37.5 -55t130.5 -19l172 -6q167 -6 255.5 -80.5t88.5 -214.5q0 -168 -153 -282.5t-394 -114.5q-202 0 -317 79t-115 226zM293 -176q0 -81 69 -127.5t181 -46.5q139 0 217 55t78 141q0 143 -189 152l-186 6h-55q-115 -80 -115 -180zM319 672q0 -96 55.5 -149.5 t157.5 -53.5q100 0 158 54t58 149t-55.5 150t-155.5 55q-101 0 -159.5 -57.5t-58.5 -147.5z" />
<glyph unicode="h" horiz-adv-x="1173" d="M160 0v1495h219v-463q0 -128 -19 -205l5 -2q45 99 134.5 156t211.5 57q84 0 144.5 -25t94 -71t49 -102.5t15.5 -126.5v-713h-217v653q0 101 -34 152t-118 51q-115 0 -190.5 -106t-75.5 -261v-489h-219z" />
<glyph unicode="i" horiz-adv-x="538" d="M129 1335q0 57 41.5 97.5t99.5 40.5q57 0 98.5 -40.5t41.5 -97.5t-41.5 -97t-98.5 -40q-59 0 -100 39.5t-41 97.5zM160 0v1018h219v-1018h-219z" />
<glyph unicode="j" horiz-adv-x="548" d="M-123 -496l14 189q64 -23 127 -23q89 0 121.5 45.5t32.5 167.5v1135h217v-1114q0 -214 -83.5 -316t-287.5 -102q-80 0 -141 18zM139 1335q0 57 41.5 97.5t100.5 40.5q58 0 98.5 -40.5t40.5 -97.5t-40.5 -97t-98.5 -40q-59 0 -100.5 39.5t-41.5 97.5z" />
<glyph unicode="k" horiz-adv-x="1036" d="M160 0v1495h219v-913l330 436h268l-377 -465l406 -553h-279l-348 516v-516h-219z" />
<glyph unicode="l" horiz-adv-x="538" d="M160 0v1495h219v-1495h-219z" />
<glyph unicode="m" horiz-adv-x="1787" d="M160 0v1018h209q0 -110 -15 -201l4 -2q45 103 136 163t208 60q71 0 126 -21t86 -55.5t47.5 -69.5t23.5 -73q17 39 46 75.5t70.5 69.5t99.5 53.5t124 20.5q303 0 303 -336v-702h-217v649q0 102 -32 154.5t-115 52.5q-103 0 -183 -104.5t-80 -266.5v-485h-215v649 q0 100 -31 153.5t-116 53.5q-106 0 -183 -106.5t-77 -264.5v-485h-219z" />
<glyph unicode="n" horiz-adv-x="1173" d="M160 0v1018h209q0 -116 -15 -201h2q46 102 138 161.5t217 59.5q84 0 144.5 -25t94 -71t49 -102.5t15.5 -126.5v-713h-217v653q0 101 -34 152t-118 51q-115 0 -190.5 -106t-75.5 -261v-489h-219z" />
<glyph unicode="o" horiz-adv-x="1124" d="M76 496q0 153 61.5 276t178 194.5t266.5 71.5q216 0 341.5 -126t125.5 -384q0 -237 -141.5 -392.5t-366.5 -155.5q-220 0 -342.5 127.5t-122.5 388.5zM303 518q0 -172 66 -261t194 -89q112 0 185 88.5t73 257.5q0 165 -64.5 252.5t-191.5 87.5q-109 0 -185.5 -86 t-76.5 -250z" />
<glyph unicode="p" horiz-adv-x="1142" d="M160 -500v1518h207q0 -102 -13 -191h4q44 99 129.5 155t200.5 56q181 0 278 -124t97 -355q0 -270 -138.5 -421.5t-392.5 -151.5q-89 0 -153 12v-498h-219zM379 178q67 -20 160 -20q138 0 215 92t77 289q0 319 -200 319q-78 0 -137 -56t-87 -138t-28 -172v-314z" />
<glyph unicode="q" horiz-adv-x="1142" d="M82 457q0 267 144 422t401 155q191 0 356 -28v-1506h-217v498q0 114 14 188l-4 2q-40 -97 -125 -152.5t-192 -55.5q-183 0 -280 121t-97 356zM311 479q0 -319 201 -319q78 0 137.5 56t88 139t28.5 175v314q-79 18 -162 18q-137 0 -215 -93t-78 -290z" />
<glyph unicode="r" horiz-adv-x="727" d="M160 0v1018h209q0 -108 -21 -225h4q18 54 46 99t68 81t98 53q41 12 87 12q19 0 39 -2l-10 -215q-33 6 -63 6q-105 0 -163 -80q-75 -103 -75 -333v-414h-219z" />
<glyph unicode="s" horiz-adv-x="862" d="M94 723q0 140 106.5 227.5t309.5 87.5q94 0 192 -20l-12 -176q-92 28 -192 28q-89 0 -134 -33.5t-45 -93.5q0 -40 25 -68.5t64.5 -45.5t87.5 -32t96.5 -36t88 -49.5t64.5 -80t25 -120.5q0 -147 -119 -239t-319 -92q-128 0 -226 28l17 187q98 -39 223 -39q87 0 141 36 t54 97q0 42 -24.5 71t-64 45.5t-87.5 31t-95.5 34.5t-87 48.5t-64 80.5t-24.5 123z" />
<glyph unicode="t" horiz-adv-x="763" d="M8 848v170h195v323l219 60v-383h266v-170h-266v-488q0 -113 28 -152.5t105 -39.5q60 0 125 14l18 -176q-105 -24 -213 -24q-161 0 -221.5 69t-60.5 242v555h-195z" />
<glyph unicode="u" horiz-adv-x="1173" d="M160 305v713h217v-653q0 -101 33.5 -152t117.5 -51q115 0 191 105.5t76 260.5v490h219v-1018h-209q0 121 14 201h-2q-46 -102 -137.5 -161.5t-216.5 -59.5q-84 0 -144.5 25t-94 71t-49 102.5t-15.5 126.5z" />
<glyph unicode="v" horiz-adv-x="1013" d="M16 1018h238l192 -565q37 -115 64 -226h2q28 122 59 224l193 567h233l-364 -1018h-258z" />
<glyph unicode="w" horiz-adv-x="1626" d="M27 1018h239l135 -473q62 -220 76 -285h2q17 86 72 279l151 479h222l153 -471q60 -201 80 -287h2q20 94 72 277l141 481h227l-325 -1018h-242l-176 532q-29 85 -59 216h-2q-14 -65 -70 -256l-154 -492h-231z" />
<glyph unicode="x" horiz-adv-x="1071" d="M33 0l364 512l-344 506h264l228 -363l231 363h244l-336 -502l352 -516h-278l-230 369l-231 -369h-264z" />
<glyph unicode="y" horiz-adv-x="1003" d="M-43 -504l25 191q59 -17 124 -17q80 0 143 51t111 179l37 100l-381 1018h244l168 -465q43 -127 80 -266h2q28 114 100 317l146 414h235l-411 -1090q-93 -250 -205 -347t-289 -97q-59 0 -129 12z" />
<glyph unicode="z" horiz-adv-x="919" d="M96 0v156l453 669q-102 -4 -246 -4h-197v197h703v-154l-447 -667q102 4 256 4h199v-201h-721z" />
<glyph unicode="{" horiz-adv-x="716" d="M57 561v168q118 6 164.5 51.5t46.5 169.5v213q0 207 80 314.5t264 107.5h39v-172q-104 0 -142 -50.5t-38 -195.5v-211q0 -144 -47 -217.5t-141 -91.5v-2q188 -28 188 -317v-320q0 -145 38 -195.5t142 -50.5v-174h-39q-183 0 -263.5 102t-80.5 322v322q0 122 -48 171.5 t-163 55.5z" />
<glyph unicode="|" horiz-adv-x="585" d="M203 -500v2048h174v-2048h-174z" />
<glyph unicode="}" horiz-adv-x="712" d="M76 -238q104 0 142 50.5t38 195.5v320q0 289 188 317v2q-188 25 -188 303v217q0 145 -38 195.5t-142 50.5v172h39q184 0 264 -107.5t80 -314.5v-207q0 -128 46.5 -174.5t164.5 -52.5v-168q-113 -6 -162 -56t-49 -171v-322q0 -220 -80.5 -322t-263.5 -102h-39v174z" />
<glyph unicode="~" d="M100 891v27q0 141 78.5 227t210.5 86q63 0 112 -23t78.5 -55.5t54.5 -64.5t54.5 -55t65.5 -23q109 0 112 176h162v-29q0 -141 -78.5 -227t-210.5 -86q-63 0 -112 23t-78 55t-54 64.5t-54.5 55.5t-65.5 23q-110 0 -113 -174h-162z" />
<glyph unicode="&#xa1;" horiz-adv-x="655" d="M172 901q0 59 39.5 98t99.5 39q59 0 99.5 -39.5t40.5 -97.5q0 -57 -40.5 -96t-99.5 -39q-60 0 -99.5 39t-39.5 96zM180 -426l35 1081h186l37 -1081h-258z" />
<glyph unicode="&#xa2;" horiz-adv-x="931" d="M84 555q0 197 103.5 333.5t283.5 166.5v188h168v-178q105 -3 199 -39l-19 -186q-96 47 -215 47q-135 0 -214 -84.5t-79 -235.5q0 -141 69.5 -225t219.5 -84q126 0 225 57l17 -192q-97 -41 -203 -49v-213h-168v215q-188 20 -287.5 145t-99.5 334z" />
<glyph unicode="&#xa3;" horiz-adv-x="968" d="M61 639v168h189q-2 16 -8 55t-8.5 61t-5.5 53t-3 54q0 181 105 277t297 96q130 0 221 -29l-37 -182q-91 33 -178 33q-88 0 -137.5 -48t-49.5 -139q0 -47 23 -231h295v-168h-275q9 -74 9 -121q0 -110 -35.5 -187.5t-122.5 -150.5q86 13 215 13h358v-193h-827v154 q107 78 151 156t44 188q0 45 -11 141h-209z" />
<glyph unicode="&#xa4;" d="M109 231l143 181q-76 95 -76 260q0 151 86 254l-153 192l163 119l150 -205q67 33 158 33q90 0 147 -29l150 201l161 -121l-151 -190q63 -89 63 -238q0 -145 -80 -248l168 -209l-164 -120l-161 217q-74 -41 -168 -41q-69 0 -127 22l-144 -196zM371 678q0 -105 47 -168.5 t147 -63.5q79 0 135 63.5t56 174.5q0 219 -197 219q-80 0 -134 -60.5t-54 -164.5z" />
<glyph unicode="&#xa5;" horiz-adv-x="1220" d="M63 1382h244l203 -419q38 -79 100 -240h2q43 119 117 264l199 395h235l-391 -770h277v-143h-330v-131h330v-145h-330v-193h-221v193h-328v145h328v131h-328v143h276z" />
<glyph unicode="&#xa6;" horiz-adv-x="585" d="M203 274h174v-774h-174v774zM203 795v753h174v-753h-174z" />
<glyph unicode="&#xa7;" horiz-adv-x="1073" d="M137 682q0 173 158 293q-78 100 -78 213q0 141 98.5 231t296.5 90q84 0 162 -16l-14 -184q-70 22 -144 22q-165 0 -165 -133q0 -40 25.5 -83t65.5 -83.5t89 -84.5t98 -93.5t89 -102.5t65.5 -120.5t25.5 -138.5q0 -85 -41 -161t-116 -132q77 -101 77 -213 q0 -64 -24.5 -120.5t-73.5 -103.5t-132.5 -74.5t-190.5 -27.5q-71 0 -164 21l14 184q92 -25 156 -25q88 0 135 40t47 104q0 41 -25.5 83.5t-66 82t-89.5 82.5t-97.5 91.5t-89 100.5t-66 119t-25.5 139zM340 711q0 -20 4 -40.5t9.5 -37.5t18.5 -39t22 -36.5t30 -38 t32.5 -36.5t39 -40t41 -39.5t47 -43.5t47.5 -45q78 55 78 148q0 42 -15 81.5t-48 81t-62 71.5t-82.5 81t-83.5 82q-78 -58 -78 -149z" />
<glyph unicode="&#xa8;" horiz-adv-x="1118" d="M217 1335q0 51 35.5 87t87.5 36t88.5 -36t36.5 -87q0 -53 -36.5 -89t-88.5 -36t-87.5 36t-35.5 89zM618 1335q0 51 36.5 87t88.5 36q51 0 87 -36t36 -87q0 -52 -36 -88.5t-87 -36.5q-53 0 -89 36t-36 89z" />
<glyph unicode="&#xa9;" horiz-adv-x="1552" d="M80 684q0 188 92.5 347.5t252.5 252t349 92.5q142 0 270 -54.5t220.5 -146.5t147 -220t54.5 -269q0 -188 -92.5 -347.5t-252 -252t-347.5 -92.5q-144 0 -273 54t-221 146t-146 220t-54 270zM250 686q0 -143 70 -264.5t190.5 -192.5t263.5 -71t263.5 70.5t190.5 191.5 t70 264q0 142 -69.5 263.5t-190.5 193t-264 71.5t-263.5 -70.5t-190.5 -191.5t-70 -264zM446 676q0 76 20.5 142t62 119t112 83.5t162.5 30.5q84 0 166 -29l-23 -152q-65 35 -139 35q-176 0 -176 -223q0 -207 168 -207q78 0 151 31l27 -146q-93 -38 -205 -38q-160 0 -243 96 t-83 258z" />
<glyph unicode="&#xaa;" horiz-adv-x="808" d="M92 856q0 124 110 191t294 65v35q0 21 -4.5 37.5t-16.5 34.5t-39 28t-67 10q-114 0 -219 -55l-17 154q112 45 264 45q77 0 132.5 -19t85.5 -53t43.5 -74t13.5 -88v-305q0 -135 2 -176h-172q0 64 10 105l-4 2q-21 -51 -80 -87t-127 -36q-105 0 -157 50t-52 136zM111 399 v172h610v-172h-610zM262 883q0 -33 22 -52.5t60 -19.5q71 0 111.5 56t40.5 110v18q-234 0 -234 -112z" />
<glyph unicode="&#xab;" horiz-adv-x="1064" d="M100 600l230 385l166 -80l-183 -305l187 -299l-174 -82zM516 600l250 379l164 -82l-199 -297l201 -291l-170 -84z" />
<glyph unicode="&#xac;" d="M84 518v182h909v-495h-192v313h-717z" />
<glyph unicode="&#xad;" horiz-adv-x="679" d="M94 492v176h492v-176h-492z" />
<glyph unicode="&#xae;" horiz-adv-x="1153" d="M113 1083q0 192 135 326.5t327 134.5q195 0 330 -133t135 -328q0 -124 -63 -229.5t-170 -167t-232 -61.5q-195 0 -328.5 133t-133.5 325zM252 1087q0 -135 95 -233t228 -98q135 0 230.5 95.5t95.5 229.5q0 136 -96 234t-230 98q-133 0 -228 -96t-95 -230zM418 856v461 h174q162 0 162 -125q0 -54 -27.5 -87t-75.5 -44q19 -19 37 -57l80 -148h-133l-96 184h-11v-184h-110zM528 1114h25q40 0 60 19.5t20 46.5q0 28 -15.5 40.5t-50.5 12.5h-39v-119z" />
<glyph unicode="&#xaf;" horiz-adv-x="808" d="M139 1247v160h531v-160h-531z" />
<glyph unicode="&#xb0;" horiz-adv-x="780" d="M98 1239q0 124 88 199t203 75q141 0 212 -75.5t71 -192.5q0 -126 -87.5 -200t-207.5 -74q-129 0 -204 72t-75 196zM266 1243q0 -62 32 -97.5t87 -35.5q53 0 87 37.5t34 95.5q0 53 -29 92t-90 39q-53 0 -87 -36.5t-34 -94.5z" />
<glyph unicode="&#xb1;" d="M84 696v183h375v387h209v-387h374v-183h-374v-389h-209v389h-375zM88 0v182h950v-182h-950z" />
<glyph unicode="&#xb2;" horiz-adv-x="745" d="M76 741v148l172 172q86 88 130 152.5t44 121.5q0 58 -34 92.5t-99 34.5q-91 0 -176 -45l-29 154q116 51 256 51t219.5 -64.5t79.5 -183.5q0 -97 -41 -175t-131 -169l-123 -125q86 4 326 4v-168h-594z" />
<glyph unicode="&#xb3;" horiz-adv-x="727" d="M66 745l22 146q71 -23 164 -23q83 0 129.5 34t46.5 93q0 68 -78 101t-223 14v137q274 0 274 135q0 49 -33.5 75t-95.5 26q-97 0 -172 -37l-20 137q106 39 237 39q138 0 213.5 -54.5t75.5 -158.5q0 -148 -135 -199q81 -21 123.5 -75.5t42.5 -126.5q0 -129 -104 -206 t-275 -77q-100 0 -192 20z" />
<glyph unicode="&#xb4;" horiz-adv-x="800" d="M221 1276l311 256l111 -146l-336 -227z" />
<glyph unicode="&#xb5;" horiz-adv-x="1265" d="M160 -500v1518h219v-643q0 -105 36.5 -158t127.5 -53q107 0 180.5 98.5t73.5 239.5v516h217v-705q0 -95 13 -127t46 -32q52 0 86 69l88 -92q-79 -151 -252 -151q-51 0 -87.5 18t-54 49t-24 66t-2.5 75h-2q-36 -92 -117.5 -148t-185.5 -56q-107 0 -164 51l31 -535h-229z " />
<glyph unicode="&#xb6;" horiz-adv-x="1198" d="M125 940q0 197 130 319.5t339 122.5v-890q-118 -1 -209.5 34.5t-147 97.5t-84 142t-28.5 174zM604 -25h148v1407h329v-172h-139v-1407h-338v172z" />
<glyph unicode="&#xb7;" horiz-adv-x="512" d="M106 608q0 63 44 106.5t106 43.5t104.5 -43.5t42.5 -106.5q0 -62 -42.5 -104.5t-104.5 -42.5t-106 43t-44 104z" />
<glyph unicode="&#xb8;" horiz-adv-x="819" d="M313 -481q55 67 76.5 117.5t11 104.5t-58.5 114l184 63q146 -194 -43 -399h-170z" />
<glyph unicode="&#xb9;" horiz-adv-x="583" d="M29 1522l241 86h176v-867h-208v680l-177 -65z" />
<glyph unicode="&#xba;" horiz-adv-x="864" d="M88 1034q0 165 99.5 267t252.5 102q69 0 125.5 -18.5t103.5 -58t73 -110.5t26 -169q0 -169 -99.5 -272t-256.5 -103q-149 0 -236.5 87t-87.5 275zM119 399v172h620v-172h-620zM274 1038q0 -91 34.5 -150t115.5 -59q72 0 116 52.5t44 162.5q0 201 -154 201 q-66 0 -111 -50.5t-45 -156.5z" />
<glyph unicode="&#xbb;" horiz-adv-x="1064" d="M135 307l199 297l-199 291l168 84l246 -375l-252 -379zM567 299l185 305l-185 299l174 82l226 -381l-232 -385z" />
<glyph unicode="&#xbc;" horiz-adv-x="1708" d="M29 1522l241 86h176v-867h-208v680l-177 -65zM70 -201l1321 1852l137 -97l-1319 -1851zM901 102l320 543h282v-522h133v-158h-133v-186h-188v186h-400zM1083 119q61 4 230 4v393z" />
<glyph unicode="&#xbd;" horiz-adv-x="1740" d="M29 1522l241 86h176v-867h-208v680l-177 -65zM70 -201l1321 1852l137 -97l-1319 -1851zM1053 -74l172 172q86 88 130 153t44 122q0 58 -34 92.5t-99 34.5q-91 0 -176 -45l-29 153q116 51 256 51t219.5 -64t79.5 -183q0 -97 -41 -175t-131 -169l-123 -125q86 4 326 4v-168 h-594v147z" />
<glyph unicode="&#xbe;" horiz-adv-x="1746" d="M66 745l22 146q71 -23 164 -23q83 0 129.5 34t46.5 93q0 68 -78 101t-223 14v137q274 0 274 135q0 49 -33.5 75t-95.5 26q-97 0 -172 -37l-20 137q106 39 237 39q138 0 213.5 -54.5t75.5 -158.5q0 -148 -135 -199q81 -21 123.5 -75.5t42.5 -126.5q0 -129 -104 -206 t-275 -77q-100 0 -192 20zM111 -201l1321 1852l137 -97l-1319 -1851zM942 102l320 543h282v-522h133v-158h-133v-186h-188v186h-400zM1124 119q61 4 230 4v393z" />
<glyph unicode="&#xbf;" horiz-adv-x="917" d="M111 -37q0 69 22.5 127.5t57 97.5t75 79.5t76.5 74t62 81.5t31.5 100.5t-15.5 131.5h213q27 -88 25.5 -150t-24.5 -116t-57.5 -92t-74 -76.5t-73.5 -70.5t-56.5 -74.5t-22.5 -87.5q0 -97 111.5 -161t300.5 -71l-29 -198q-295 9 -458.5 125.5t-163.5 279.5zM383 901 q0 58 40.5 97.5t100.5 39.5q59 0 99.5 -39.5t40.5 -97.5q0 -57 -40.5 -96t-99.5 -39q-60 0 -100.5 39t-40.5 96z" />
<glyph unicode="&#xc0;" horiz-adv-x="1269" d="M12 0l492 1382h256l497 -1382h-247l-105 305h-561l-106 -305h-226zM330 1589l55 162l395 -152l-39 -122zM399 483h449l-166 469q-39 114 -57 189h-4q-22 -89 -56 -187z" />
<glyph unicode="&#xc1;" horiz-adv-x="1269" d="M12 0l492 1382h256l497 -1382h-247l-105 305h-561l-106 -305h-226zM399 483h449l-166 469q-39 114 -57 189h-4q-22 -89 -56 -187zM469 1599l395 152l56 -162l-412 -112z" />
<glyph unicode="&#xc2;" horiz-adv-x="1269" d="M12 0l492 1382h256l497 -1382h-247l-105 305h-561l-106 -305h-226zM299 1589l330 174l334 -166l-60 -122l-280 118l-271 -118zM399 483h449l-166 469q-39 114 -57 189h-4q-22 -89 -56 -187z" />
<glyph unicode="&#xc3;" horiz-adv-x="1269" d="M12 0l492 1382h256l497 -1382h-247l-105 305h-561l-106 -305h-226zM264 1587q89 160 242 160q47 0 88.5 -16t66 -35t55 -35t58.5 -16q67 0 123 90l111 -78q-91 -158 -242 -158q-47 0 -88.5 16t-66 35.5t-55 35.5t-58.5 16q-69 0 -123 -91zM399 483h449l-166 469 q-39 114 -57 189h-4q-22 -89 -56 -187z" />
<glyph unicode="&#xc4;" horiz-adv-x="1269" d="M12 0l492 1382h256l497 -1382h-247l-105 305h-561l-106 -305h-226zM289 1602q0 51 35 85.5t86 34.5t85.5 -34.5t34.5 -85.5t-34.5 -85t-85.5 -34t-86 34t-35 85zM399 483h449l-166 469q-39 114 -57 189h-4q-22 -89 -56 -187zM729 1602q0 51 35 85.5t86 34.5t86 -34.5 t35 -85.5t-35 -85t-86 -34t-86 34t-35 85z" />
<glyph unicode="&#xc5;" horiz-adv-x="1269" d="M12 0l492 1382h256l497 -1382h-247l-105 305h-561l-106 -305h-226zM399 483h449l-166 469q-39 114 -57 189h-4q-22 -89 -56 -187zM412 1675q0 92 67 155.5t160 63.5q96 0 161.5 -61t65.5 -154q0 -91 -67.5 -156t-161.5 -65q-95 0 -160 61.5t-65 155.5zM539 1677 q0 -42 29 -72t71 -30q41 0 70.5 30.5t29.5 71.5q0 42 -29.5 72.5t-70.5 30.5q-42 0 -71 -30.5t-29 -72.5z" />
<glyph unicode="&#xc6;" horiz-adv-x="1603" d="M-84 0l713 1382h827v-186h-495v-393h477v-182h-477v-431h512v-190h-730v322h-434l-162 -322h-231zM387 498h356v696h-4q-74 -167 -133 -283z" />
<glyph unicode="&#xc7;" horiz-adv-x="1179" d="M88 653q0 164 42 298t124 234t213.5 155t302.5 55q168 0 307 -43l-33 -205q-142 51 -292 51q-85 0 -154.5 -25.5t-118.5 -71t-82.5 -109t-49 -139.5t-15.5 -163q0 -246 108 -376t330 -130q71 0 149 18t136 48l37 -197q-167 -69 -371 -69q-136 0 -243.5 34t-179.5 94 t-120 145.5t-69 183.5t-21 212zM524 -481q55 67 76.5 117.5t11 104.5t-58.5 114l184 63q146 -194 -43 -399h-170z" />
<glyph unicode="&#xc8;" horiz-adv-x="1019" d="M160 0v1382h729v-186h-506v-393h481v-182h-481v-431h506v-190h-729zM223 1589l56 162l395 -152l-39 -122z" />
<glyph unicode="&#xc9;" horiz-adv-x="1019" d="M160 0v1382h729v-186h-506v-393h481v-182h-481v-431h506v-190h-729zM362 1599l396 152l55 -162l-412 -112z" />
<glyph unicode="&#xca;" horiz-adv-x="1019" d="M160 0v1382h729v-186h-506v-393h481v-182h-481v-431h506v-190h-729zM193 1589l329 174l334 -166l-59 -122l-281 118l-270 -118z" />
<glyph unicode="&#xcb;" horiz-adv-x="1019" d="M160 0v1382h729v-186h-506v-393h481v-182h-481v-431h506v-190h-729zM174 1602q0 51 35 85.5t86 34.5t86 -34.5t35 -85.5t-35 -85t-86 -34t-86 34t-35 85zM614 1602q0 51 35 85.5t86 34.5t86 -34.5t35 -85.5t-35 -85t-86 -34t-86 34t-35 85z" />
<glyph unicode="&#xcc;" horiz-adv-x="544" d="M-31 1589l56 162l395 -152l-39 -122zM160 0v1382h223v-1382h-223z" />
<glyph unicode="&#xcd;" horiz-adv-x="544" d="M127 1599l395 152l56 -162l-412 -112zM160 0v1382h223v-1382h-223z" />
<glyph unicode="&#xce;" horiz-adv-x="544" d="M-57 1589l329 174l334 -166l-59 -122l-281 118l-270 -118zM160 0v1382h223v-1382h-223z" />
<glyph unicode="&#xcf;" horiz-adv-x="544" d="M-70 1602q0 51 35 85.5t86 34.5t86 -34.5t35 -85.5t-35 -85t-86 -34t-86 34t-35 85zM160 0v1382h223v-1382h-223zM371 1602q0 51 35 85.5t86 34.5t85.5 -34.5t34.5 -85.5t-34.5 -85t-85.5 -34t-86 34t-35 85z" />
<glyph unicode="&#xd0;" horiz-adv-x="1396" d="M8 625v170h170v585q7 0 169.5 4.5t258.5 4.5q339 0 522 -165t183 -513q0 -228 -96 -391t-267 -245t-403 -83q-83 0 -215 4t-152 4v625h-170zM399 193q82 -11 166 -11q113 0 205 30.5t160 92t105.5 160.5t37.5 229q0 252 -117.5 381t-367.5 129q-91 0 -189 -4v-405h275 v-170h-275v-432z" />
<glyph unicode="&#xd1;" horiz-adv-x="1441" d="M160 0v1382h295l481 -813q85 -151 143 -280q-14 276 -14 743v350h215v-1382h-295l-489 831q-83 148 -136 271q15 -253 15 -721v-381h-215zM350 1587q89 160 242 160q47 0 88.5 -16t66 -35t55 -35t58.5 -16q67 0 123 90l111 -78q-91 -158 -242 -158q-47 0 -88.5 16 t-66 35.5t-55 35.5t-58.5 16q-69 0 -123 -91z" />
<glyph unicode="&#xd2;" horiz-adv-x="1441" d="M78 672q0 169 52 308.5t142.5 231t211 141.5t257.5 50q307 0 465 -184t158 -508q0 -169 -52.5 -308.5t-143 -231t-211 -141.5t-257.5 -50q-307 0 -464.5 184t-157.5 508zM315 702q0 -243 102.5 -383.5t301.5 -140.5q177 0 292 134t115 368q0 243 -103 384.5t-300 141.5 q-176 0 -292 -135t-116 -369zM414 1589l55 162l395 -152l-39 -122z" />
<glyph unicode="&#xd3;" horiz-adv-x="1441" d="M78 672q0 169 52 308.5t142.5 231t211 141.5t257.5 50q307 0 465 -184t158 -508q0 -169 -52.5 -308.5t-143 -231t-211 -141.5t-257.5 -50q-307 0 -464.5 184t-157.5 508zM315 702q0 -243 102.5 -383.5t301.5 -140.5q177 0 292 134t115 368q0 243 -103 384.5t-300 141.5 q-176 0 -292 -135t-116 -369zM594 1599l395 152l55 -162l-411 -112z" />
<glyph unicode="&#xd4;" horiz-adv-x="1441" d="M78 672q0 169 52 308.5t142.5 231t211 141.5t257.5 50q307 0 465 -184t158 -508q0 -169 -52.5 -308.5t-143 -231t-211 -141.5t-257.5 -50q-307 0 -464.5 184t-157.5 508zM315 702q0 -243 102.5 -383.5t301.5 -140.5q177 0 292 134t115 368q0 243 -103 384.5t-300 141.5 q-176 0 -292 -135t-116 -369zM403 1589l330 174l334 -166l-59 -122l-281 118l-270 -118z" />
<glyph unicode="&#xd5;" horiz-adv-x="1441" d="M78 672q0 169 52 308.5t142.5 231t211 141.5t257.5 50q307 0 465 -184t158 -508q0 -169 -52.5 -308.5t-143 -231t-211 -141.5t-257.5 -50q-307 0 -464.5 184t-157.5 508zM315 702q0 -243 102.5 -383.5t301.5 -140.5q177 0 292 134t115 368q0 243 -103 384.5t-300 141.5 q-176 0 -292 -135t-116 -369zM350 1587q89 160 242 160q47 0 88.5 -16t66 -35t55 -35t58.5 -16q67 0 123 90l111 -78q-91 -158 -242 -158q-47 0 -88.5 16t-66 35.5t-55 35.5t-58.5 16q-69 0 -123 -91z" />
<glyph unicode="&#xd6;" horiz-adv-x="1441" d="M78 672q0 169 52 308.5t142.5 231t211 141.5t257.5 50q307 0 465 -184t158 -508q0 -169 -52.5 -308.5t-143 -231t-211 -141.5t-257.5 -50q-307 0 -464.5 184t-157.5 508zM315 702q0 -243 102.5 -383.5t301.5 -140.5q177 0 292 134t115 368q0 243 -103 384.5t-300 141.5 q-176 0 -292 -135t-116 -369zM389 1602q0 51 35 85.5t86 34.5t86 -34.5t35 -85.5t-35 -85t-86 -34t-86 34t-35 85zM829 1602q0 51 35 85.5t86 34.5t86 -34.5t35 -85.5t-35 -85t-86 -34t-86 34t-35 85z" />
<glyph unicode="&#xd7;" d="M104 270l332 332l-332 330l136 135l329 -332l332 332l121 -121l-332 -332l332 -329l-135 -135l-330 331l-332 -331z" />
<glyph unicode="&#xd8;" horiz-adv-x="1441" d="M78 676q0 168 52 306.5t142.5 230t211 141t257.5 49.5q84 0 174 -17l86 203l160 -67l-84 -199q139 -76 213 -233t74 -385q0 -168 -51.5 -306t-141.5 -229t-212.5 -140.5t-264.5 -49.5q-105 0 -184 20l-88 -209l-160 68l90 209q-138 81 -206 238t-68 370zM309 702 q0 -149 38 -259t104 -167l380 922h-2q-44 14 -108 14q-83 0 -156.5 -33t-131 -95.5t-91 -161t-33.5 -220.5zM596 188q59 -16 115 -16q86 0 161 31.5t134 92.5t93 161t34 227q0 155 -39 267t-113 171z" />
<glyph unicode="&#xd9;" horiz-adv-x="1406" d="M160 471v911h223v-895q0 -74 14 -129t48 -100.5t98 -69.5t157 -24q172 0 250 81t78 271v866h219v-850q0 -274 -143.5 -413t-417.5 -139q-126 0 -221 27.5t-152 71.5t-92.5 110t-48 133t-12.5 149zM362 1589l56 162l395 -152l-39 -122z" />
<glyph unicode="&#xda;" horiz-adv-x="1406" d="M160 471v911h223v-895q0 -74 14 -129t48 -100.5t98 -69.5t157 -24q172 0 250 81t78 271v866h219v-850q0 -274 -143.5 -413t-417.5 -139q-126 0 -221 27.5t-152 71.5t-92.5 110t-48 133t-12.5 149zM627 1599l395 152l55 -162l-411 -112z" />
<glyph unicode="&#xdb;" horiz-adv-x="1406" d="M160 471v911h223v-895q0 -74 14 -129t48 -100.5t98 -69.5t157 -24q172 0 250 81t78 271v866h219v-850q0 -274 -143.5 -413t-417.5 -139q-126 0 -221 27.5t-152 71.5t-92.5 110t-48 133t-12.5 149zM377 1589l330 174l333 -166l-59 -122l-281 118l-270 -118z" />
<glyph unicode="&#xdc;" horiz-adv-x="1406" d="M160 471v911h223v-895q0 -74 14 -129t48 -100.5t98 -69.5t157 -24q172 0 250 81t78 271v866h219v-850q0 -274 -143.5 -413t-417.5 -139q-126 0 -221 27.5t-152 71.5t-92.5 110t-48 133t-12.5 149zM362 1602q0 51 35 85.5t86 34.5t86 -34.5t35 -85.5t-35 -85t-86 -34 t-86 34t-35 85zM803 1602q0 51 35 85.5t86 34.5t85.5 -34.5t34.5 -85.5t-34.5 -85t-85.5 -34t-86 34t-35 85z" />
<glyph unicode="&#xdd;" horiz-adv-x="1122" d="M12 1382h244l205 -436q51 -113 98 -233h4q38 100 115 258l194 411h236l-440 -888v-494h-224v494zM471 1599l395 152l56 -162l-412 -112z" />
<glyph unicode="&#xde;" horiz-adv-x="1099" d="M160 0v1382h223v-202q76 6 162 6q245 0 381.5 -112t136.5 -324q0 -215 -156 -349.5t-409 -134.5q-78 0 -115 4v-270h-223zM383 457q52 -8 131 -8q149 0 234.5 73.5t85.5 212.5q0 125 -80 197t-246 72q-46 0 -125 -11v-536z" />
<glyph unicode="&#xdf;" horiz-adv-x="1226" d="M160 0v1018q0 130 36.5 226.5t102.5 152.5t149 83t183 27q182 0 287.5 -78.5t105.5 -209.5q0 -55 -14.5 -99t-37.5 -72.5t-50.5 -52.5t-55 -43.5t-50.5 -40t-37.5 -48.5t-14.5 -62q0 -39 21.5 -71.5t56 -56.5t76 -47t82.5 -51t75.5 -62t56 -85t21.5 -115 q0 -150 -114 -241.5t-302 -91.5q-122 0 -209 24l15 186q84 -38 186 -38q100 0 149.5 39t49.5 98q0 40 -21.5 73t-55.5 56.5t-75.5 46t-82.5 49.5t-75 60.5t-55.5 85t-21.5 116.5q0 67 26.5 118.5t64 84.5t75 63t64 70t26.5 90q0 66 -47 100.5t-129 34.5q-242 0 -242 -307 v-1030h-219z" />
<glyph unicode="&#xe0;" horiz-adv-x="1071" d="M88 262q0 170 158.5 261t441.5 91v43q0 110 -45.5 160.5t-155.5 50.5q-69 0 -153.5 -20t-153.5 -51l-39 170q177 71 377 71q213 0 301 -90t88 -266v-403q0 -150 6 -279h-211q0 112 11 188l-2 2q-38 -93 -128.5 -151.5t-209.5 -58.5q-129 0 -207 78t-78 204zM246 1386 l110 146l314 -256l-88 -117zM301 289q0 -60 38 -98.5t101 -38.5q107 0 177.5 87.5t70.5 200.5v27q-387 0 -387 -178z" />
<glyph unicode="&#xe1;" horiz-adv-x="1071" d="M88 262q0 170 158.5 261t441.5 91v43q0 110 -45.5 160.5t-155.5 50.5q-69 0 -153.5 -20t-153.5 -51l-39 170q177 71 377 71q213 0 301 -90t88 -266v-403q0 -150 6 -279h-211q0 112 11 188l-2 2q-38 -93 -128.5 -151.5t-209.5 -58.5q-129 0 -207 78t-78 204zM301 289 q0 -60 38 -98.5t101 -38.5q107 0 177.5 87.5t70.5 200.5v27q-387 0 -387 -178zM408 1276l311 256l110 -146l-335 -227z" />
<glyph unicode="&#xe2;" horiz-adv-x="1071" d="M88 262q0 170 158.5 261t441.5 91v43q0 110 -45.5 160.5t-155.5 50.5q-69 0 -153.5 -20t-153.5 -51l-39 170q177 71 377 71q213 0 301 -90t88 -266v-403q0 -150 6 -279h-211q0 112 11 188l-2 2q-38 -93 -128.5 -151.5t-209.5 -58.5q-129 0 -207 78t-78 204zM238 1260 l299 272l297 -270l-93 -103l-206 170l-209 -170zM301 289q0 -60 38 -98.5t101 -38.5q107 0 177.5 87.5t70.5 200.5v27q-387 0 -387 -178z" />
<glyph unicode="&#xe3;" horiz-adv-x="1071" d="M88 262q0 170 158.5 261t441.5 91v43q0 110 -45.5 160.5t-155.5 50.5q-69 0 -153.5 -20t-153.5 -51l-39 170q177 71 377 71q213 0 301 -90t88 -266v-403q0 -150 6 -279h-211q0 112 11 188l-2 2q-38 -93 -128.5 -151.5t-209.5 -58.5q-129 0 -207 78t-78 204zM172 1296 q84 170 236 170q45 0 84.5 -17t63 -37t52.5 -37t56 -17q64 0 118 94l107 -82q-86 -170 -234 -170q-46 0 -86 17t-63.5 37.5t-52.5 37.5t-56 17q-63 0 -118 -95zM301 289q0 -60 38 -98.5t101 -38.5q107 0 177.5 87.5t70.5 200.5v27q-387 0 -387 -178z" />
<glyph unicode="&#xe4;" horiz-adv-x="1071" d="M88 262q0 170 158.5 261t441.5 91v43q0 110 -45.5 160.5t-155.5 50.5q-69 0 -153.5 -20t-153.5 -51l-39 170q177 71 377 71q213 0 301 -90t88 -266v-403q0 -150 6 -279h-211q0 112 11 188l-2 2q-38 -93 -128.5 -151.5t-209.5 -58.5q-129 0 -207 78t-78 204zM207 1335 q0 51 35.5 87t87.5 36t88.5 -36t36.5 -87q0 -53 -36.5 -89t-88.5 -36t-87.5 36t-35.5 89zM301 289q0 -60 38 -98.5t101 -38.5q107 0 177.5 87.5t70.5 200.5v27q-387 0 -387 -178zM608 1335q0 51 36.5 87t88.5 36q51 0 87 -36t36 -87q0 -52 -36 -88.5t-87 -36.5q-53 0 -89 36 t-36 89z" />
<glyph unicode="&#xe5;" horiz-adv-x="1071" d="M88 262q0 170 158.5 261t441.5 91v43q0 110 -45.5 160.5t-155.5 50.5q-69 0 -153.5 -20t-153.5 -51l-39 170q177 71 377 71q213 0 301 -90t88 -266v-403q0 -150 6 -279h-211q0 112 11 188l-2 2q-38 -93 -128.5 -151.5t-209.5 -58.5q-129 0 -207 78t-78 204zM293 1360 q0 100 73.5 168.5t174.5 68.5q103 0 174 -66t71 -165q0 -98 -73 -169t-174 -71q-103 0 -174.5 66.5t-71.5 167.5zM301 289q0 -60 38 -98.5t101 -38.5q107 0 177.5 87.5t70.5 200.5v27q-387 0 -387 -178zM430 1362q0 -46 32 -79.5t79 -33.5q45 0 76.5 33.5t31.5 79.5 q0 47 -31 80t-77 33q-47 0 -79 -33t-32 -80z" />
<glyph unicode="&#xe6;" horiz-adv-x="1646" d="M88 262q0 170 158.5 262t441.5 92v60q0 98 -48.5 145t-164.5 47q-70 0 -149.5 -20t-141.5 -53l-43 176q175 67 371 67q239 0 317 -145h2q47 65 129.5 105t182.5 40q107 0 188 -34.5t130 -95.5t73.5 -139t24.5 -171q0 -31 -7 -106h-649q-9 -336 301 -336q159 0 293 61 l29 -172q-160 -65 -361 -65q-160 0 -263.5 60.5t-143.5 162.5h-2q-47 -97 -146 -160t-233 -63q-132 0 -210.5 78t-78.5 204zM299 289q0 -60 38 -98.5t101 -38.5q108 0 179 87t71 201v29q-389 0 -389 -180zM907 641h432q3 108 -52 170.5t-152 62.5q-91 0 -153 -63t-75 -170z " />
<glyph unicode="&#xe7;" horiz-adv-x="882" d="M78 475q0 165 54.5 289t170 197t281.5 73q139 0 237 -39l-37 -186q-105 43 -213 43q-126 0 -195 -95.5t-69 -256.5q0 -328 266 -328q129 0 220 45l32 -182q-122 -51 -295 -51q-102 0 -182 26.5t-142 83t-95 153t-33 228.5zM352 -481q55 67 76.5 117.5t11 104.5t-58.5 114 l184 63q146 -194 -43 -399h-170z" />
<glyph unicode="&#xe8;" horiz-adv-x="1046" d="M78 502q0 235 126.5 385.5t342.5 150.5q106 0 186.5 -33.5t128.5 -92.5t72 -134t24 -164q0 -74 -8 -131h-647q-4 -166 70 -246.5t231 -80.5q154 0 293 59l29 -170q-168 -65 -361 -65q-487 0 -487 522zM250 1386l110 146l314 -256l-88 -117zM305 635h434q3 113 -51.5 176 t-152.5 63q-93 0 -155 -63.5t-75 -175.5z" />
<glyph unicode="&#xe9;" horiz-adv-x="1046" d="M78 502q0 235 126.5 385.5t342.5 150.5q106 0 186.5 -33.5t128.5 -92.5t72 -134t24 -164q0 -74 -8 -131h-647q-4 -166 70 -246.5t231 -80.5q154 0 293 59l29 -170q-168 -65 -361 -65q-487 0 -487 522zM305 635h434q3 113 -51.5 176t-152.5 63q-93 0 -155 -63.5 t-75 -175.5zM406 1276l311 256l110 -146l-335 -227z" />
<glyph unicode="&#xea;" horiz-adv-x="1046" d="M78 502q0 235 126.5 385.5t342.5 150.5q106 0 186.5 -33.5t128.5 -92.5t72 -134t24 -164q0 -74 -8 -131h-647q-4 -166 70 -246.5t231 -80.5q154 0 293 59l29 -170q-168 -65 -361 -65q-487 0 -487 522zM244 1260l299 272l297 -270l-92 -103l-207 170l-209 -170zM305 635 h434q3 113 -51.5 176t-152.5 63q-93 0 -155 -63.5t-75 -175.5z" />
<glyph unicode="&#xeb;" horiz-adv-x="1046" d="M78 502q0 235 126.5 385.5t342.5 150.5q106 0 186.5 -33.5t128.5 -92.5t72 -134t24 -164q0 -74 -8 -131h-647q-4 -166 70 -246.5t231 -80.5q154 0 293 59l29 -170q-168 -65 -361 -65q-487 0 -487 522zM217 1335q0 51 35.5 87t87.5 36t88.5 -36t36.5 -87q0 -53 -36.5 -89 t-88.5 -36t-87.5 36t-35.5 89zM305 635h434q3 113 -51.5 176t-152.5 63q-93 0 -155 -63.5t-75 -175.5zM618 1335q0 51 36.5 87t88.5 36q51 0 87 -36t36 -87q0 -52 -36 -88.5t-87 -36.5q-53 0 -89 36t-36 89z" />
<glyph unicode="&#xec;" horiz-adv-x="538" d="M18 1421l134 125l272 -303l-109 -104zM160 0v1018h219v-1018h-219z" />
<glyph unicode="&#xed;" horiz-adv-x="538" d="M111 1241l270 305l129 -125l-297 -282zM160 0v1018h219v-1018h-219z" />
<glyph unicode="&#xee;" horiz-adv-x="538" d="M2 1260l268 272l267 -270l-88 -103l-181 170l-184 -170zM160 0v1018h219v-1018h-219z" />
<glyph unicode="&#xef;" horiz-adv-x="538" d="M-39 1335q0 51 36.5 87t88.5 36t87.5 -35t35.5 -88t-35.5 -89t-87.5 -36t-88.5 36t-36.5 89zM160 0v1018h219v-1018h-219zM330 1335q0 51 36 87t87 36q53 0 89 -35.5t36 -87.5q0 -53 -36 -89t-89 -36q-51 0 -87 36.5t-36 88.5z" />
<glyph unicode="&#xf0;" d="M76 496q0 236 134.5 387t350.5 151q62 0 114.5 -20t78.5 -60q-1 2 -58 97q-50 85 -121 159l-200 -88l-90 107l184 82q-56 49 -162 127l217 92q87 -70 148 -131l194 84l90 -109l-188 -82q134 -160 205 -346t71 -383q0 -144 -38.5 -257t-106.5 -183.5t-157.5 -106.5 t-194.5 -36q-217 0 -344 130t-127 386zM301 514q0 -166 71 -256t197 -90q111 0 179.5 90.5t68.5 276.5q0 150 -65 234.5t-191 84.5q-109 0 -184.5 -87.5t-75.5 -252.5z" />
<glyph unicode="&#xf1;" horiz-adv-x="1173" d="M160 0v1018h209q0 -116 -15 -201h2q46 102 138 161.5t217 59.5q84 0 144.5 -25t94 -71t49 -102.5t15.5 -126.5v-713h-217v653q0 101 -34 152t-118 51q-115 0 -190.5 -106t-75.5 -261v-489h-219zM233 1296q84 170 236 170q45 0 84.5 -17t63 -37t52.5 -37t56 -17 q65 0 119 94l106 -82q-86 -170 -233 -170q-46 0 -86 17t-63.5 37.5t-52.5 37.5t-56 17q-64 0 -119 -95z" />
<glyph unicode="&#xf2;" horiz-adv-x="1124" d="M76 496q0 153 61.5 276t178 194.5t266.5 71.5q216 0 341.5 -126t125.5 -384q0 -237 -141.5 -392.5t-366.5 -155.5q-220 0 -342.5 127.5t-122.5 388.5zM281 1386l110 146l314 -256l-89 -117zM303 518q0 -172 66 -261t194 -89q112 0 185 88.5t73 257.5q0 165 -64.5 252.5 t-191.5 87.5q-109 0 -185.5 -86t-76.5 -250z" />
<glyph unicode="&#xf3;" horiz-adv-x="1124" d="M76 496q0 153 61.5 276t178 194.5t266.5 71.5q216 0 341.5 -126t125.5 -384q0 -237 -141.5 -392.5t-366.5 -155.5q-220 0 -342.5 127.5t-122.5 388.5zM303 518q0 -172 66 -261t194 -89q112 0 185 88.5t73 257.5q0 165 -64.5 252.5t-191.5 87.5q-109 0 -185.5 -86 t-76.5 -250zM432 1276l311 256l111 -146l-336 -227z" />
<glyph unicode="&#xf4;" horiz-adv-x="1124" d="M76 496q0 153 61.5 276t178 194.5t266.5 71.5q216 0 341.5 -126t125.5 -384q0 -237 -141.5 -392.5t-366.5 -155.5q-220 0 -342.5 127.5t-122.5 388.5zM272 1260l299 272l297 -270l-92 -103l-207 170l-209 -170zM303 518q0 -172 66 -261t194 -89q112 0 185 88.5t73 257.5 q0 165 -64.5 252.5t-191.5 87.5q-109 0 -185.5 -86t-76.5 -250z" />
<glyph unicode="&#xf5;" horiz-adv-x="1124" d="M76 496q0 153 61.5 276t178 194.5t266.5 71.5q216 0 341.5 -126t125.5 -384q0 -237 -141.5 -392.5t-366.5 -155.5q-220 0 -342.5 127.5t-122.5 388.5zM217 1296q84 170 236 170q45 0 84.5 -17t63 -37t52.5 -37t56 -17q64 0 118 94l107 -82q-86 -170 -234 -170 q-46 0 -86 17t-63.5 37.5t-52.5 37.5t-56 17q-63 0 -118 -95zM303 518q0 -172 66 -261t194 -89q112 0 185 88.5t73 257.5q0 165 -64.5 252.5t-191.5 87.5q-109 0 -185.5 -86t-76.5 -250z" />
<glyph unicode="&#xf6;" horiz-adv-x="1124" d="M76 496q0 153 61.5 276t178 194.5t266.5 71.5q216 0 341.5 -126t125.5 -384q0 -237 -141.5 -392.5t-366.5 -155.5q-220 0 -342.5 127.5t-122.5 388.5zM244 1335q0 51 35.5 87t87.5 36t88.5 -36t36.5 -87q0 -53 -36 -89t-89 -36q-52 0 -87.5 36t-35.5 89zM303 518 q0 -172 66 -261t194 -89q112 0 185 88.5t73 257.5q0 165 -64.5 252.5t-191.5 87.5q-109 0 -185.5 -86t-76.5 -250zM645 1335q0 51 36.5 87t88.5 36q51 0 87 -36t36 -87q0 -52 -36 -88.5t-87 -36.5q-52 0 -88.5 36t-36.5 89z" />
<glyph unicode="&#xf7;" d="M84 518v182h958v-182h-958zM422 197q0 59 40.5 100t98.5 41t98.5 -41t40.5 -100q0 -57 -40.5 -98.5t-98.5 -41.5t-98.5 41.5t-40.5 98.5zM422 1020q0 58 40 98.5t99 40.5t99 -40.5t40 -98.5t-40 -98.5t-99 -40.5t-99 40.5t-40 98.5z" />
<glyph unicode="&#xf8;" d="M76 496q0 235 139 388.5t369 153.5q59 0 131 -14l88 184l127 -55l-86 -182q207 -125 207 -443q0 -238 -139.5 -393t-366.5 -155q-85 0 -162 22l-94 -205l-129 56l96 206q-180 124 -180 437zM287 518q0 -173 80 -256l258 598q-27 6 -60 6q-53 0 -100.5 -19.5t-88.5 -59 t-65 -109t-24 -160.5zM475 170q38 -14 90 -14q123 0 199 91.5t76 266.5q0 193 -101 266z" />
<glyph unicode="&#xf9;" horiz-adv-x="1173" d="M160 305v713h217v-653q0 -101 33.5 -152t117.5 -51q115 0 191 105.5t76 260.5v490h219v-1018h-209q0 121 14 201h-2q-46 -102 -137.5 -161.5t-216.5 -59.5q-84 0 -144.5 25t-94 71t-49 102.5t-15.5 126.5zM287 1386l110 146l314 -256l-88 -117z" />
<glyph unicode="&#xfa;" horiz-adv-x="1173" d="M160 305v713h217v-653q0 -101 33.5 -152t117.5 -51q115 0 191 105.5t76 260.5v490h219v-1018h-209q0 121 14 201h-2q-46 -102 -137.5 -161.5t-216.5 -59.5q-84 0 -144.5 25t-94 71t-49 102.5t-15.5 126.5zM469 1276l311 256l111 -146l-336 -227z" />
<glyph unicode="&#xfb;" horiz-adv-x="1173" d="M160 305v713h217v-653q0 -101 33.5 -152t117.5 -51q115 0 191 105.5t76 260.5v490h219v-1018h-209q0 121 14 201h-2q-46 -102 -137.5 -161.5t-216.5 -59.5q-84 0 -144.5 25t-94 71t-49 102.5t-15.5 126.5zM289 1260l299 272l297 -270l-92 -103l-207 170l-209 -170z" />
<glyph unicode="&#xfc;" horiz-adv-x="1173" d="M160 305v713h217v-653q0 -101 33.5 -152t117.5 -51q115 0 191 105.5t76 260.5v490h219v-1018h-209q0 121 14 201h-2q-46 -102 -137.5 -161.5t-216.5 -59.5q-84 0 -144.5 25t-94 71t-49 102.5t-15.5 126.5zM262 1335q0 51 35.5 87t87.5 36t88.5 -36t36.5 -87 q0 -53 -36 -89t-89 -36q-52 0 -87.5 36t-35.5 89zM664 1335q0 51 36 87t88 36q51 0 87 -36t36 -87q0 -52 -36 -88.5t-87 -36.5q-52 0 -88 36t-36 89z" />
<glyph unicode="&#xfd;" horiz-adv-x="1003" d="M-43 -504l25 191q59 -17 124 -17q80 0 143 51t111 179l37 100l-381 1018h244l168 -465q43 -127 80 -266h2q28 114 100 317l146 414h235l-411 -1090q-93 -250 -205 -347t-289 -97q-59 0 -129 12zM391 1276l311 256l111 -146l-336 -227z" />
<glyph unicode="&#xfe;" horiz-adv-x="1142" d="M160 -500v1995h219v-434q0 -133 -12 -219h4q41 91 123 143.5t194 52.5q181 0 278 -124t97 -355q0 -270 -138.5 -421.5t-392.5 -151.5q-89 0 -153 12v-498h-219zM379 178q67 -20 160 -20q138 0 215 92t77 289q0 319 -200 319q-78 0 -137 -56t-87 -138t-28 -172v-314z" />
<glyph unicode="&#xff;" horiz-adv-x="1003" d="M-43 -504l25 191q59 -17 124 -17q80 0 143 51t111 179l37 100l-381 1018h244l168 -465q43 -127 80 -266h2q28 114 100 317l146 414h235l-411 -1090q-93 -250 -205 -347t-289 -97q-59 0 -129 12zM184 1335q0 51 35.5 87t87.5 36t88.5 -36t36.5 -87q0 -53 -36 -89t-89 -36 q-52 0 -87.5 36t-35.5 89zM586 1335q0 51 36.5 87t88.5 36q51 0 87 -36t36 -87q0 -52 -36 -88.5t-87 -36.5q-53 0 -89 36t-36 89z" />
<glyph unicode="&#x152;" horiz-adv-x="1765" d="M78 676q0 168 52 306.5t142 229.5t209 141t254 50q112 0 211 -21h690v-186h-508v-393h482v-182h-482v-431h508v-190h-712q-120 -20 -224 -20q-206 0 -347 86.5t-208 240.5t-67 369zM315 702q0 -243 102 -383.5t300 -140.5q88 0 190 31v969q-89 28 -184 28 q-82 0 -155 -32.5t-129.5 -94t-90 -159t-33.5 -218.5z" />
<glyph unicode="&#x153;" horiz-adv-x="1775" d="M74 496q0 235 140 388.5t368 153.5q109 0 203 -44t149 -130q120 174 338 174q106 0 187.5 -34.5t130.5 -95.5t73.5 -139t24.5 -171q0 -31 -7 -106h-649q-9 -336 301 -336q156 0 293 61l29 -172q-160 -65 -361 -65q-273 0 -385 190q-58 -88 -152 -139t-216 -51 q-220 0 -343.5 127t-123.5 389zM301 518q0 -172 66 -261t194 -89q113 0 186.5 88.5t73.5 257.5q0 165 -64.5 252.5t-193.5 87.5q-109 0 -185.5 -86t-76.5 -250zM1036 641h432q3 108 -52 170.5t-152 62.5q-91 0 -153 -63t-75 -170z" />
<glyph unicode="&#x178;" horiz-adv-x="1122" d="M12 1382h244l205 -436q51 -113 98 -233h4q38 100 115 258l194 411h236l-440 -888v-494h-224v494zM225 1602q0 51 35 85.5t86 34.5t86 -34.5t35 -85.5t-35 -85t-86 -34t-86 34t-35 85zM666 1602q0 51 34.5 85.5t85.5 34.5t86 -34.5t35 -85.5t-35 -85t-86 -34t-85.5 34 t-34.5 85z" />
<glyph unicode="&#x2c6;" horiz-adv-x="880" d="M139 1260l299 272l297 -270l-92 -103l-207 170l-209 -170z" />
<glyph unicode="&#x2dc;" horiz-adv-x="976" d="M133 1296q84 170 236 170q45 0 84.5 -17t63 -37t52.5 -37t56 -17q64 0 118 94l107 -82q-86 -170 -234 -170q-46 0 -86 17t-63.5 37.5t-52.5 37.5t-56 17q-63 0 -118 -95z" />
<glyph unicode="&#x2000;" horiz-adv-x="947" />
<glyph unicode="&#x2001;" horiz-adv-x="1894" />
<glyph unicode="&#x2002;" horiz-adv-x="947" />
<glyph unicode="&#x2003;" horiz-adv-x="1894" />
<glyph unicode="&#x2004;" horiz-adv-x="631" />
<glyph unicode="&#x2005;" horiz-adv-x="473" />
<glyph unicode="&#x2006;" horiz-adv-x="315" />
<glyph unicode="&#x2007;" horiz-adv-x="315" />
<glyph unicode="&#x2008;" horiz-adv-x="236" />
<glyph unicode="&#x2009;" horiz-adv-x="378" />
<glyph unicode="&#x200a;" horiz-adv-x="105" />
<glyph unicode="&#x2010;" horiz-adv-x="679" d="M94 492v176h492v-176h-492z" />
<glyph unicode="&#x2011;" horiz-adv-x="679" d="M94 492v176h492v-176h-492z" />
<glyph unicode="&#x2012;" horiz-adv-x="679" d="M94 492v176h492v-176h-492z" />
<glyph unicode="&#x2013;" d="M0 514v191h1126v-191h-1126z" />
<glyph unicode="&#x2014;" horiz-adv-x="2048" d="M236 514v191h1576v-191h-1576z" />
<glyph unicode="&#x2018;" horiz-adv-x="520" d="M128 1239q54 153 220 301l92 -82q-178 -189 -86 -303q24 -29 28 -66.5t-10 -69t-46 -53.5t-74 -22q-80 0 -120 71q-51 90 -4 224z" />
<glyph unicode="&#x2019;" horiz-adv-x="520" d="M78 1010q64 70 92.5 128t25 98.5t-31.5 76.5q-25 29 -29 67t9.5 70t46 54t75.5 22q79 0 120 -71q50 -90 3 -225q-54 -154 -219 -302z" />
<glyph unicode="&#x201a;" horiz-adv-x="520" d="M78 -252q176 191 86 303q-25 30 -29 68t9.5 69.5t46 53.5t75.5 22q79 0 120 -71q50 -90 3 -225q-54 -154 -219 -302z" />
<glyph unicode="&#x201c;" horiz-adv-x="933" d="M128 1239q54 153 220 301l92 -82q-178 -189 -86 -303q24 -29 28 -66.5t-10 -69t-46 -53.5t-74 -22q-80 0 -120 71q-51 90 -4 224zM544 1239q54 153 220 301l92 -82q-178 -189 -86 -303q24 -29 28 -66.5t-10 -69t-46.5 -53.5t-75.5 -22q-80 0 -120 71q-50 90 -2 224z" />
<glyph unicode="&#x201d;" horiz-adv-x="933" d="M78 1010q64 70 92.5 128t25 98.5t-31.5 76.5q-25 29 -29 67t9.5 70t46 54t75.5 22q79 0 120 -71q50 -90 3 -225q-54 -154 -219 -302zM492 1010q65 70 93.5 128t25 98.5t-32.5 76.5q-24 29 -28 67t10 70t46.5 54t75.5 22q79 0 119 -71q51 -90 4 -224q-54 -154 -221 -303z " />
<glyph unicode="&#x201e;" horiz-adv-x="933" d="M78 -252q176 191 86 303q-25 30 -29 68t9.5 69.5t46 53.5t75.5 22q79 0 120 -71q50 -90 3 -225q-54 -154 -219 -302zM492 -252q179 192 86 303q-24 30 -28 68t10 69.5t46.5 53.5t75.5 22q79 0 119 -71q51 -90 4 -224q-54 -154 -221 -303z" />
<glyph unicode="&#x2022;" horiz-adv-x="862" d="M160 608q0 113 79 193t193 80q112 0 192.5 -80.5t80.5 -192.5t-80 -192t-193 -80q-114 0 -193 79.5t-79 192.5z" />
<glyph unicode="&#x202f;" horiz-adv-x="378" />
<glyph unicode="&#x2039;" horiz-adv-x="641" d="M98 600l242 383l164 -84l-193 -299l195 -293l-170 -86z" />
<glyph unicode="&#x203a;" horiz-adv-x="641" d="M137 305l193 299l-193 293l170 86l236 -379l-242 -383z" />
<glyph unicode="&#x205f;" horiz-adv-x="473" />
<glyph unicode="&#x20ac;" horiz-adv-x="1212" d="M27 463v135h159v53q0 43 4 121h-163v135h178q48 248 204.5 372t389.5 124q93 0 185 -22t155 -56l-60 -174q-126 72 -288 72q-133 0 -224 -78t-121 -238h431v-135h-449q-2 -27 -2 -84q0 -61 2 -90h449v-135h-435q52 -303 357 -303q69 0 148.5 25t146.5 67l63 -164 q-173 -108 -393 -108q-246 0 -389.5 122.5t-177.5 360.5h-170z" />
<glyph unicode="&#x2122;" horiz-adv-x="1421" d="M76 1249v133h450v-133h-143v-442h-160v442h-147zM553 807l90 575h199l80 -286l20 -90l16 81l84 295h197l92 -575h-166l-41 278l-12 105l-20 -94l-82 -289h-156l-80 295l-20 88l-6 -76l-43 -307h-152z" />
<glyph unicode="&#xe000;" horiz-adv-x="1013" d="M0 0v1014h1014v-1014h-1014z" />
<glyph unicode="&#xfb01;" horiz-adv-x="1212" d="M16 848v170h195v41q0 450 485 450q151 0 301 -39l-39 -182q-128 41 -249 41q-146 0 -213.5 -63.5t-67.5 -188.5v-59h625v-1018h-217v848h-408v-848h-217v848h-195z" />
<glyph unicode="&#xfb02;" horiz-adv-x="1212" d="M16 848v170h195v108q0 181 118.5 282t364.5 101q162 0 359 -32v-1477h-217v1317q-77 14 -162 14q-126 0 -186 -52.5t-60 -166.5v-94h254v-170h-254v-848h-217v848h-195z" />
</font>
</defs>
</svg>
